<?xml version="1.0" standalone="no"?><!DOCTYPE svg PUBLIC "-//W3C//DTD SVG 1.1//EN" "http://www.w3.org/Graphics/SVG/1.1/DTD/svg11.dtd"><svg t="1713577300484" class="icon" viewBox="0 0 1024 1024" version="1.1" xmlns="http://www.w3.org/2000/svg" p-id="3128" xmlns:xlink="http://www.w3.org/1999/xlink" width="256" height="256"><path d="M160.914286 292.571429a21.942857 21.942857 0 0 0 21.942857 21.942857h658.285714a21.942857 21.942857 0 1 0 0-43.885715H182.857143a21.942857 21.942857 0 0 0-21.942857 21.942858zM160.914286 512a21.942857 21.942857 0 0 1 21.942857-21.942857h658.285714a21.942857 21.942857 0 1 1 0 43.885714H182.857143a21.942857 21.942857 0 0 1-21.942857-21.942857zM160.914286 731.428571a21.942857 21.942857 0 0 1 21.942857-21.942857h658.285714a21.942857 21.942857 0 1 1 0 43.885715H182.857143a21.942857 21.942857 0 0 1-21.942857-21.942858z" fill="#e6e6e6" fill-opacity=".8" p-id="3129"></path><path d="M731.428571 292.571429a109.714286 109.714286 0 1 1-219.428571 0 109.714286 109.714286 0 0 1 219.428571 0z" fill="#e6e6e6" p-id="3130"></path><path d="M621.714286 358.4a65.828571 65.828571 0 1 1 0-131.657143 65.828571 65.828571 0 0 1 0 131.657143z m0 43.885714a109.714286 109.714286 0 1 0 0-219.428571 109.714286 109.714286 0 0 0 0 219.428571z" fill="#e6e6e6" fill-opacity=".8" p-id="3131"></path><path d="M475.428571 512a109.714286 109.714286 0 1 1-219.428571 0 109.714286 109.714286 0 0 1 219.428571 0z" fill="#e6e6e6" p-id="3132"></path><path d="M365.714286 577.828571a65.828571 65.828571 0 1 1 0-131.657142 65.828571 65.828571 0 0 1 0 131.657142z m0 43.885715a109.714286 109.714286 0 1 0 0-219.428572 109.714286 109.714286 0 0 0 0 219.428572z" fill="#e6e6e6" fill-opacity=".8" p-id="3133"></path><path d="M731.428571 731.428571a109.714286 109.714286 0 1 1-219.428571 0 109.714286 109.714286 0 0 1 219.428571 0z" fill="#e6e6e6" p-id="3134"></path><path d="M621.714286 797.257143a65.828571 65.828571 0 1 1 0-131.657143 65.828571 65.828571 0 0 1 0 131.657143z m0 43.885714a109.714286 109.714286 0 1 0 0-219.428571 109.714286 109.714286 0 0 0 0 219.428571z" fill="#e6e6e6" fill-opacity=".8" p-id="3135"></path></svg>