<?xml version="1.0" standalone="no"?><!DOCTYPE svg PUBLIC "-//W3C//DTD SVG 1.1//EN" "http://www.w3.org/Graphics/SVG/1.1/DTD/svg11.dtd"><svg t="1713527257087" class="icon" viewBox="0 0 1024 1024" version="1.1" xmlns="http://www.w3.org/2000/svg" p-id="27259" xmlns:xlink="http://www.w3.org/1999/xlink" width="32" height="32"><path d="M825.002895 408.24388999L825.002895 40.976047c0-22.62183001 18.339533-40.959315 40.959315-40.959315L971.768313 0.016732c22.62183001 0 40.959315 18.337485 40.959315 40.959315L1012.727628 983.040296C1012.727628 1005.662125 994.390142 1023.999611 971.768313 1023.999611l-105.806103 0c-22.619782 0-40.959315-18.337485-40.959315-40.959315l0-367.226884a233.208005 233.208005 0 0 1-14.526222 9.549664L198.476922 996.362313c-102.801737 62.37489301-186.946506 15.550204-186.946506-104.028469l0-760.61653c0-119.580721 84.14476901-166.446369 186.946506-104.073524L810.476673 398.688082a233.345218 233.345218 0 0 1 14.526222 9.55580799z" p-id="27260" fill="#1296db"></path></svg>