<?xml version="1.0" standalone="no"?><!DOCTYPE svg PUBLIC "-//W3C//DTD SVG 1.1//EN" "http://www.w3.org/Graphics/SVG/1.1/DTD/svg11.dtd"><svg t="1713620691434" class="icon" viewBox="0 0 1024 1024" version="1.1" xmlns="http://www.w3.org/2000/svg" p-id="2376" xmlns:xlink="http://www.w3.org/1999/xlink" width="256" height="256"><path d="M987.373925 471.715669c-21.950175 0-36.604957 14.654782-36.604958 36.604957v98.743792a225.517254 225.517254 0 0 1-226.733152 226.733153H157.23493l47.548047-43.900351c7.295394-7.295394 14.654782-18.302479 14.654782-29.245569a40.572627 40.572627 0 0 0-40.252654-40.252654c-10.94309 0-25.597872 3.647697-32.893266 11.007085L21.950175 844.740661c-18.302479 14.654782-14.654782 40.252654 0 54.843441l124.341664 109.686882c7.295394 7.359388 21.950175 14.654782 32.893266 14.654782a43.452388 43.452388 0 0 0 43.900351-36.540962 38.396808 38.396808 0 0 0-18.302479-32.957261l-54.843441-51.195744h570.448582C888.630133 903.231799 1023.914887 767.947044 1023.914887 607.064418V508.320626c0-21.950175-14.654782-36.604957-36.540962-36.604957zM36.476968 563.164067c21.950175 0 36.604957-14.654782 36.604957-36.540963v-102.391488c0-127.989361 102.391489-230.38085 226.733153-234.092541h566.800885l-47.548048 43.90035c-7.295394 7.295394-14.654782 18.302479-14.654782 29.245569 0 21.950175 18.302479 40.252654 40.252654 40.252654 10.94309 0 25.597872-3.647697 32.893266-11.007085L998.317015 179.195984c18.302479-14.654782 14.654782-40.252654 0-54.843441L873.975351 14.665661C866.679957 7.306273 852.025175 0.010879 841.082085 0.010879a43.452388 43.452388 0 0 0-43.900351 36.540963 38.396808 38.396808 0 0 0 18.302479 32.95726l54.843441 51.195744H303.526769C135.284754 120.704846 0 255.989601 0 427.879313v98.743791c0 21.886181 14.654782 36.540963 36.540963 36.540963z" fill="#e6e6e6" p-id="2377"></path><path d="M548.498406 694.801125V329.135521h-54.843441L402.270561 394.858057l18.238484 47.548048 69.498223-47.548048v299.879073z" fill="#e6e6e6" p-id="2378"></path></svg>