<?xml version="1.0" standalone="no"?><!DOCTYPE svg PUBLIC "-//W3C//DTD SVG 1.1//EN" "http://www.w3.org/Graphics/SVG/1.1/DTD/svg11.dtd"><svg t="1713527238998" class="icon" viewBox="0 0 1024 1024" version="1.1" xmlns="http://www.w3.org/2000/svg" p-id="26689" xmlns:xlink="http://www.w3.org/1999/xlink" width="32" height="32"><path d="M198.997105 615.75611001L198.997105 983.023953c0 22.62183001-18.339533 40.959315-40.959315 40.959315L52.231687 1023.983268c-22.62183001 0-40.959315-18.337485-40.959315-40.959315L11.272372 40.959704C11.272372 18.337875 29.609858 0.000389 52.231687 0.000389l105.806103 0c22.619782 0 40.959315 18.337485 40.959315 40.959315l0 367.226884a233.208005 233.208005 0 0 1 14.526222-9.549664L825.523078 27.637687c102.801737-62.37489301 186.946506-15.550204 186.946506 104.028469l0 760.61653c0 119.580721-84.14476901 166.446369-186.946506 104.073524L213.523327 625.311918a233.345218 233.345218 0 0 1-14.526222-9.55580799z" p-id="26690" fill="#1296db"></path></svg>